<svg width="442" height="102" viewBox="0 0 442 102" fill="none" xmlns="http://www.w3.org/2000/svg">
<path d="M78.9211 57.3125C67.5312 68.7024 49.0646 68.7024 37.6747 57.3125C26.2848 45.9226 26.2848 27.456 37.6747 16.0661C49.0646 4.67618 67.5312 4.67618 78.9211 16.0661C90.311 27.456 90.311 45.9226 78.9211 57.3125Z" fill="#3CAEFF"/>
<path d="M72.4608 15.9522L72.0542 21.5847L76.3246 25.28L72.0542 28.9753L72.4608 34.6079L66.8283 34.2012L63.133 38.4716L59.4377 34.2012L53.8051 34.6079L54.2118 28.9753L49.9414 25.28L54.2118 21.5847L53.8051 15.9522L59.4377 16.3588L63.133 12.0884L66.8283 16.3588L72.4608 15.9522Z" fill="white" fill-opacity="0.5"/>
<path d="M58.3313 65.3107C58.3313 81.4184 45.2734 94.4763 29.1656 94.4763C13.0579 94.4763 0 81.4184 0 65.3107C0 49.203 13.0579 36.1451 29.1656 36.1451C45.2734 36.1451 58.3313 49.203 58.3313 65.3107Z" fill="#339DFF"/>
<path d="M23.594 40.5117L27.2526 44.854L32.8293 44.4405L32.4267 50.168L36.6548 53.9255L32.4267 57.683L32.8293 63.4105L27.2526 62.997L23.594 67.3393L19.9353 62.997L14.3586 63.4105L14.7612 57.683L10.5332 53.9255L14.7612 50.168L14.3586 44.4405L19.9353 44.854L23.594 40.5117Z" fill="white" fill-opacity="0.5"/>
<path d="M174.605 39.5493C173.246 37.0577 171.377 35.1607 168.999 33.8583C166.621 32.5559 163.846 31.9047 160.675 31.9047C157.164 31.9047 154.05 32.6975 151.332 34.283C148.614 35.8685 146.49 38.1336 144.961 41.0782C143.432 44.0228 142.668 47.4204 142.668 51.271C142.668 55.2349 143.432 58.6891 144.961 61.6337C146.547 64.5783 148.727 66.8433 151.502 68.4289C154.276 70.0144 157.504 70.8072 161.185 70.8072C165.715 70.8072 169.424 69.618 172.312 67.2397C175.2 64.8048 177.097 61.4355 178.003 57.1319H157.617V48.0433H189.725V58.406C188.932 62.5397 187.233 66.362 184.628 69.8729C182.023 73.3837 178.654 76.215 174.52 78.3669C170.443 80.462 165.856 81.5096 160.76 81.5096C155.041 81.5096 149.859 80.2355 145.216 77.6873C140.629 75.0825 137.005 71.4867 134.344 66.9C131.739 62.3132 130.436 57.1035 130.436 51.271C130.436 45.4385 131.739 40.2288 134.344 35.642C137.005 30.9986 140.629 27.4029 145.216 24.8547C149.859 22.2498 155.012 20.9474 160.675 20.9474C167.357 20.9474 173.161 22.5896 178.088 25.8739C183.014 29.1017 186.412 33.6601 188.281 39.5493H174.605ZM218.568 81.7645C214.038 81.7645 209.961 80.7735 206.337 78.7916C202.713 76.753 199.853 73.8934 197.758 70.2126C195.719 66.5319 194.7 62.2849 194.7 57.4716C194.7 52.6584 195.748 48.4114 197.843 44.7306C199.995 41.0499 202.911 38.2186 206.592 36.2366C210.272 34.1981 214.378 33.1788 218.908 33.1788C223.438 33.1788 227.544 34.1981 231.224 36.2366C234.905 38.2186 237.793 41.0499 239.888 44.7306C242.04 48.4114 243.116 52.6584 243.116 57.4716C243.116 62.2849 242.012 66.5319 239.803 70.2126C237.651 73.8934 234.707 76.753 230.97 78.7916C227.289 80.7735 223.155 81.7645 218.568 81.7645ZM218.568 71.4018C220.72 71.4018 222.73 70.8921 224.599 69.8729C226.524 68.797 228.053 67.2114 229.186 65.1162C230.318 63.021 230.885 60.4728 230.885 57.4716C230.885 52.9981 229.695 49.5722 227.317 47.1939C224.995 44.7589 222.136 43.5415 218.738 43.5415C215.341 43.5415 212.481 44.7589 210.159 47.1939C207.894 49.5722 206.762 52.9981 206.762 57.4716C206.762 61.9451 207.866 65.3994 210.074 67.8343C212.339 70.2126 215.171 71.4018 218.568 71.4018ZM291.954 43.7113H283.715V81H271.654V43.7113H266.303V33.9432H271.654V31.5649C271.654 25.789 273.296 21.542 276.58 18.8239C279.865 16.1058 284.82 14.8317 291.445 15.0016V25.0245C288.557 24.9679 286.547 25.4492 285.414 26.4685C284.282 27.4878 283.715 29.3282 283.715 31.9896V33.9432H291.954V43.7113ZM310.703 18.1444V81H298.811V18.1444H310.703ZM342.498 81.7645C337.968 81.7645 333.89 80.7735 330.266 78.7916C326.642 76.753 323.783 73.8934 321.687 70.2126C319.649 66.5319 318.63 62.2849 318.63 57.4716C318.63 52.6584 319.677 48.4114 321.772 44.7306C323.924 41.0499 326.84 38.2186 330.521 36.2366C334.202 34.1981 338.307 33.1788 342.837 33.1788C347.368 33.1788 351.473 34.1981 355.154 36.2366C358.835 38.2186 361.722 41.0499 363.818 44.7306C365.969 48.4114 367.045 52.6584 367.045 57.4716C367.045 62.2849 365.941 66.5319 363.733 70.2126C361.581 73.8934 358.636 76.753 354.899 78.7916C351.218 80.7735 347.085 81.7645 342.498 81.7645ZM342.498 71.4018C344.65 71.4018 346.66 70.8921 348.528 69.8729C350.454 68.797 351.983 67.2114 353.115 65.1162C354.248 63.021 354.814 60.4728 354.814 57.4716C354.814 52.9981 353.625 49.5722 351.247 47.1939C348.925 44.7589 346.065 43.5415 342.668 43.5415C339.27 43.5415 336.41 44.7589 334.089 47.1939C331.824 49.5722 330.691 52.9981 330.691 57.4716C330.691 61.9451 331.795 65.3994 334.004 67.8343C336.269 70.2126 339.1 71.4018 342.498 71.4018ZM440.153 33.9432L426.393 81H413.567L404.988 48.1282L396.409 81H383.498L369.653 33.9432H381.714L390.038 69.7879L399.042 33.9432H411.613L420.447 69.703L428.771 33.9432H440.153Z" fill="white"/>
</svg>
